<svg aria-hidden="true" style="position: absolute; width: 0; height: 0; overflow: hidden;" version="1.1" xmlns="http://www.w3.org/2000/svg" xmlns:xlink="http://www.w3.org/1999/xlink">
<defs>
<symbol id="icon-Bem" viewBox="0 0 32 32">
<path fill="#3aa1e6" style="fill: var(--color1, #3aa1e6)" d="M0 6.836h7.481v2.2h-7.481v-2.2zM0 2.75h7.481v2.2h-7.481v-2.2zM13.422 10.891h-13.422v2.2h12.919c1.415 0 4.715 0.031 5.941 2.012v-1.226c-0.597-1.949-2.358-2.986-5.438-2.986v0zM13.454 14.978h-13.454v2.2h12.919c3.143 0 5.124 0.126 5.941 0.566v-0.974c-0.629-1.54-3.269-1.792-5.407-1.792v0zM13.422 25.351h-13.422v-2.2h12.919c1.415 0 4.715-0.031 5.941-2.012v1.226c-0.597 1.949-2.358 2.986-5.438 2.986v0zM13.454 21.265h-13.454v-2.2h12.919c3.143 0 5.124-0.126 5.941-0.566v0.974c-0.629 1.54-3.269 1.792-5.407 1.792v0zM22.13 29.155h9.87v-1.352h-9.587c-0.849 0-2.861-0.031-3.584-1.195v0.754c0.346 1.163 1.415 1.792 3.301 1.792v0zM22.098 26.671h9.87v-1.352h-9.556c-1.918 0-3.112-0.063-3.584-0.346v0.597c0.377 0.943 1.98 1.1 3.269 1.1v0z"></path>
</symbol>
<symbol id="icon-Css3" viewBox="0 0 32 32">
<path fill="#1172b8" style="fill: var(--color2, #1172b8)" d="M6 28l-2-25h24l-2 25-10 3-10-3z"></path>
<path fill="#3ad" style="fill: var(--color3, #3ad)" d="M26 5h-10v24.5l8-2.5 2-22z"></path>
<path fill="#fff" style="fill: var(--color4, #fff)" d="M19.5 17.5h-10l-0.5-3.5 8-2.5h-8l-0.5-3h15.5l-0.5 3.5-6.5 2.5h6l-1 9.5-6 2-6-2-0.5-5h3l0.5 2.5 3 1 3-1 0.5-4z"></path>
</symbol>
<symbol id="icon-Figma" viewBox="0 0 32 32">
<path fill="#1abcfe" style="fill: var(--color5, #1abcfe)" d="M16 16c0-2.209 1.791-4 4-4s4 1.791 4 4c0 2.209-1.791 4-4 4s-4-1.791-4-4z"></path>
<path fill="#0acf83" style="fill: var(--color6, #0acf83)" d="M8 24c0-2.209 1.791-4 4-4h4v4c0 2.209-1.791 4-4 4s-4-1.791-4-4z"></path>
<path fill="#ff7262" style="fill: var(--color7, #ff7262)" d="M16 4v8h4c2.209 0 4-1.791 4-4s-1.791-4-4-4h-4z"></path>
<path fill="#f24e1e" style="fill: var(--color8, #f24e1e)" d="M8 8c0 2.209 1.791 4 4 4h4v-8h-4c-2.209 0-4 1.791-4 4z"></path>
<path fill="#a259ff" style="fill: var(--color9, #a259ff)" d="M8 16c0 2.209 1.791 4 4 4h4v-8h-4c-2.209 0-4 1.791-4 4z"></path>
</symbol>
<symbol id="icon-Html5" viewBox="0 0 32 32">
<path fill="#e44d26" style="fill: var(--color10, #e44d26)" d="M27.307 6.273l-2.060 23.079-9.261 2.567-9.235-2.564-2.058-23.083h22.614z"></path>
<path fill="#f16529" style="fill: var(--color11, #f16529)" d="M16 29.957l7.483-2.075 1.76-19.722h-9.243v21.797z"></path>
<path fill="#ebebeb" style="fill: var(--color12, #ebebeb)" d="M11.995 13.822h4.005v-2.831h-7.099l0.068 0.759 0.696 7.801h6.335v-2.831h-3.746l-0.259-2.899zM12.633 20.968h-2.842l0.397 4.445 5.799 1.61 0.013-0.004v-2.945l-0.012 0.003-3.153-0.851-0.202-2.258z"></path>
<path fill="#000" style="fill: var(--color13, #000)" d="M6.797 0h1.439v1.421h1.316v-1.421h1.439v4.304h-1.439v-1.441h-1.316v1.441h-1.439v-4.304zM12.882 1.427h-1.266v-1.427h3.972v1.427h-1.267v2.877h-1.439v-2.877h-0zM16.219 0h1.5l0.923 1.512 0.922-1.512h1.501v4.304h-1.433v-2.133l-0.99 1.53h-0.025l-0.99-1.53v2.133h-1.408v-4.304zM21.78 0h1.439v2.882h2.023v1.423h-3.462v-4.304z"></path>
<path fill="#fff" style="fill: var(--color4, #fff)" d="M15.99 19.552h3.486l-0.329 3.672-3.157 0.852v2.945l5.804-1.608 0.043-0.478 0.665-7.453 0.069-0.76h-6.581v2.831zM15.99 13.815v0.007h6.838l0.057-0.636 0.129-1.435 0.068-0.759h-7.092v2.824z"></path>
</symbol>
<symbol id="icon-jQuery" viewBox="0 0 32 32">
<path fill="#3276c3" style="fill: var(--color14, #3276c3)" d="M31.198 22.789c0 0-3.972 10.712-17.647 8.218-0.215-0.040-0.422-0.115-0.631-0.178-0.049-0.014-0.098-0.030-0.147-0.044-0.205-0.064-0.409-0.129-0.611-0.2-0.023-0.008-0.045-0.016-0.069-0.024-0.184-0.065-0.367-0.133-0.548-0.203-0.047-0.018-0.094-0.036-0.141-0.056-0.195-0.077-0.388-0.157-0.58-0.241-0.035-0.016-0.069-0.031-0.105-0.047-0.168-0.075-0.333-0.152-0.497-0.23-0.043-0.022-0.085-0.042-0.128-0.062-0.023-0.012-0.049-0.023-0.072-0.035-0.106-0.053-0.21-0.108-0.314-0.163-0.081-0.042-0.162-0.082-0.242-0.125-0.148-0.081-0.294-0.162-0.439-0.246-0.054-0.031-0.108-0.060-0.161-0.091-0.197-0.116-0.392-0.236-0.584-0.358-0.054-0.035-0.108-0.072-0.162-0.108-0.125-0.081-0.251-0.162-0.373-0.247-0.013-0.009-0.025-0.018-0.038-0.027-0.048-0.032-0.093-0.065-0.14-0.1-0.129-0.090-0.258-0.182-0.384-0.276-0.061-0.046-0.122-0.093-0.183-0.139-0.115-0.088-0.229-0.177-0.343-0.268-0.056-0.045-0.114-0.090-0.17-0.136-0.138-0.114-0.276-0.23-0.411-0.347-0.026-0.022-0.053-0.044-0.079-0.068-0.003-0.001-0.004-0.003-0.007-0.006-0.153-0.134-0.303-0.272-0.452-0.412-0.045-0.041-0.090-0.085-0.135-0.128-0.111-0.107-0.221-0.215-0.33-0.324-0.045-0.044-0.089-0.089-0.133-0.134-0.14-0.144-0.278-0.288-0.413-0.436-0.005-0.007-0.010-0.011-0.016-0.017-0.002-0.003-0.006-0.006-0.008-0.009-0.138-0.152-0.274-0.308-0.407-0.464-0.037-0.044-0.075-0.089-0.111-0.133-0.099-0.119-0.196-0.238-0.292-0.359-0.040-0.050-0.079-0.101-0.119-0.151-0.107-0.139-0.213-0.278-0.316-0.42-0.019-0.026-0.040-0.052-0.058-0.078-0.004-0.004-0.007-0.009-0.010-0.014-0.119-0.165-0.234-0.332-0.347-0.5-0.035-0.052-0.068-0.105-0.102-0.158-0.082-0.124-0.162-0.248-0.239-0.374-0.041-0.064-0.079-0.129-0.118-0.194-0.070-0.117-0.139-0.235-0.206-0.353-0.038-0.067-0.076-0.133-0.113-0.201-0.021-0.036-0.043-0.074-0.063-0.112-0.035-0.064-0.067-0.13-0.101-0.194-0.053-0.102-0.107-0.204-0.158-0.307-2.16-4.318-2.512-9.606 0.315-13.67l2.207-2.799c-2.49 4.813-1.371 10.674 1.744 14.922 0.112 0.155 0.228 0.307 0.345 0.46 0.036 0.046 0.073 0.092 0.109 0.137 0.098 0.125 0.198 0.248 0.299 0.37 0.036 0.043 0.072 0.085 0.109 0.129 0.135 0.16 0.273 0.318 0.415 0.473 0.007 0.008 0.013 0.014 0.020 0.022 0.134 0.146 0.271 0.291 0.41 0.433 0.043 0.044 0.087 0.087 0.131 0.131 0.109 0.111 0.221 0.22 0.334 0.327 0.043 0.043 0.086 0.084 0.13 0.126 0.153 0.142 0.307 0.284 0.465 0.422 0.016 0.014 0.033 0.027 0.048 0.041 0.146 0.127 0.293 0.25 0.442 0.372 0.052 0.042 0.105 0.085 0.158 0.127 0.117 0.094 0.236 0.186 0.355 0.277 0.057 0.044 0.115 0.088 0.174 0.132 0.13 0.096 0.261 0.191 0.393 0.284 0.045 0.030 0.089 0.063 0.134 0.094 0.137 0.095 0.276 0.187 0.416 0.277 0.053 0.035 0.104 0.071 0.158 0.105 0.193 0.122 0.388 0.242 0.585 0.358 0.051 0.029 0.101 0.056 0.151 0.084 0.149 0.086 0.298 0.171 0.449 0.252 0.082 0.046 0.167 0.087 0.25 0.131 0.124 0.064 0.248 0.129 0.374 0.19 0.048 0.023 0.094 0.045 0.14 0.067 0.16 0.077 0.321 0.152 0.484 0.225 0.039 0.017 0.076 0.034 0.115 0.051 0.19 0.083 0.381 0.163 0.574 0.239 0.050 0.020 0.099 0.039 0.149 0.059 0.176 0.068 0.353 0.134 0.532 0.197 0.028 0.010 0.056 0.020 0.083 0.030 0.2 0.069 0.4 0.134 0.603 0.196 0.052 0.016 0.103 0.032 0.156 0.047 0.207 0.061 0.413 0.128 0.626 0.176 5.611 1.277 11.532 0.13 14.868-4.216zM11.402 15.922c0.307 0.439 0.646 0.962 1.053 1.314 0.147 0.162 0.302 0.321 0.459 0.476 0.040 0.041 0.080 0.079 0.121 0.119 0.152 0.148 0.308 0.294 0.468 0.436 0.007 0.005 0.013 0.012 0.019 0.016 0.002 0.002 0.003 0.003 0.005 0.005 0.178 0.155 0.361 0.305 0.547 0.453 0.041 0.032 0.082 0.065 0.124 0.097 0.187 0.143 0.377 0.284 0.573 0.418 0.006 0.004 0.011 0.008 0.017 0.012 0.086 0.060 0.174 0.115 0.261 0.173 0.042 0.027 0.082 0.056 0.124 0.082 0.14 0.090 0.281 0.177 0.425 0.26 0.020 0.012 0.040 0.023 0.060 0.035 0.123 0.071 0.249 0.142 0.375 0.21 0.044 0.024 0.088 0.046 0.133 0.070 0.087 0.045 0.174 0.092 0.262 0.136 0.013 0.006 0.027 0.012 0.040 0.018 0.18 0.089 0.362 0.174 0.548 0.255 0.040 0.018 0.081 0.033 0.121 0.050 0.148 0.063 0.298 0.125 0.449 0.182 0.064 0.024 0.129 0.047 0.192 0.070 0.137 0.051 0.274 0.097 0.412 0.143 0.063 0.020 0.124 0.041 0.187 0.060 0.197 0.061 0.391 0.138 0.596 0.172 10.558 1.749 12.996-6.38 12.996-6.38-2.198 3.165-6.453 4.674-10.994 3.496-0.201-0.053-0.4-0.111-0.598-0.173-0.061-0.018-0.12-0.038-0.18-0.058-0.14-0.046-0.28-0.094-0.418-0.144-0.063-0.023-0.127-0.046-0.189-0.070-0.152-0.058-0.302-0.119-0.45-0.181-0.041-0.018-0.082-0.033-0.121-0.052-0.186-0.081-0.37-0.166-0.551-0.256-0.093-0.046-0.185-0.094-0.277-0.141-0.053-0.027-0.106-0.055-0.159-0.082-0.117-0.064-0.234-0.13-0.35-0.197-0.027-0.016-0.056-0.031-0.084-0.047-0.143-0.084-0.284-0.17-0.423-0.258-0.043-0.027-0.084-0.057-0.127-0.085-0.092-0.060-0.184-0.12-0.274-0.181-0.194-0.134-0.384-0.275-0.57-0.417-0.043-0.034-0.086-0.067-0.129-0.101-1.987-1.569-3.563-3.714-4.312-6.146-0.785-2.522-0.615-5.353 0.745-7.65l-1.671 2.359c-2.045 2.943-1.934 6.882-0.339 9.994 0.268 0.522 0.569 1.028 0.905 1.51zM22.531 12.282c0.087 0.033 0.174 0.061 0.262 0.091 0.038 0.012 0.077 0.025 0.116 0.037 0.124 0.039 0.248 0.085 0.376 0.109 5.83 1.126 7.411-2.992 7.832-3.598-1.385 1.994-3.713 2.473-6.569 1.78-0.225-0.055-0.473-0.137-0.691-0.213-0.279-0.099-0.553-0.213-0.82-0.341-0.508-0.244-0.991-0.539-1.439-0.878-2.556-1.939-4.143-5.639-2.476-8.652l-0.902 1.244c-1.205 1.774-1.324 3.977-0.488 5.937 0.882 2.080 2.69 3.711 4.799 4.485z"></path>
</symbol>
<symbol id="icon-Js" viewBox="0 0 32 32">
<path fill="#ffca28" style="fill: var(--color15, #ffca28)" d="M2 2h28v28h-28v-28z"></path>
<path fill="#3e3e3e" style="fill: var(--color16, #3e3e3e)" d="M19 25.288l2.061-1.364c0.162 0.508 1.185 1.713 2.477 1.713s1.892-0.706 1.892-1.174c0-1.275-1.32-1.725-1.953-1.941-0.103-0.035-0.188-0.064-0.247-0.090-0.030-0.013-0.075-0.030-0.133-0.052-0.705-0.269-3.306-1.263-3.306-4.143 0-3.172 3.061-3.537 3.754-3.537 0.453 0 2.631 0.056 3.715 2.094l-2 1.396c-0.438-0.888-1.167-1.182-1.615-1.182-1.108 0-1.338 0.812-1.338 1.182 0 1.037 1.204 1.502 2.22 1.895 0.266 0.103 0.519 0.2 0.734 0.302 1.108 0.523 2.739 1.38 2.739 4.076 0 1.351-1.133 3.537-3.985 3.537-3.831 0-4.846-2.3-5.015-2.712z"></path>
<path fill="#3e3e3e" style="fill: var(--color16, #3e3e3e)" d="M9 25.559l2.149-1.363c0.168 0.507 0.823 1.443 1.772 1.443s1.435-0.975 1.435-1.443v-9.195h2.643v9.195c0.043 1.268-0.661 3.805-3.765 3.805-2.854 0-4.041-1.696-4.233-2.442z"></path>
</symbol>
<symbol id="icon-Mui" viewBox="0 0 32 32">
<path fill="#00b0ff" style="fill: var(--color17, #00b0ff)" d="M0 17.136v-13.856l12 6.928v4.619l-8-4.619v9.237z"></path>
<path fill="#0081cb" style="fill: var(--color18, #0081cb)" d="M12 10.208l12-6.928v13.856l-8 4.619-4-2.309 8-4.619v-4.619l-8 4.619z"></path>
<path fill="#00b0ff" style="fill: var(--color17, #00b0ff)" d="M12 19.445v4.619l8 4.619v-4.619z"></path>
<path fill="#0081cb" style="fill: var(--color18, #0081cb)" d="M20 28.683l12-6.928v-9.237l-4 2.309v4.619l-8 4.619zM28 10.208v-4.619l4-2.309v4.619z"></path>
</symbol>
<symbol id="icon-Photoshop" viewBox="0 0 32 32">
<path fill="#0c0824" style="fill: var(--color19, #0c0824)" d="M3.167 3.517h25.666v24.966h-25.666z"></path>
<path fill="#31c5f0" style="fill: var(--color20, #31c5f0)" d="M3.167 3.517h25.666v24.966h-25.666zM2 29.65h28v-27.3h-28zM20.877 13.55c-0.922 0-1.237 0.467-1.237 0.852 0 0.42 0.21 0.712 1.447 1.353 1.832 0.887 2.4 1.738 2.4 2.987 0 1.867-1.423 2.87-3.348 2.87-0.056 0.002-0.122 0.003-0.188 0.003-0.802 0-1.56-0.186-2.234-0.517l0.030 0.013c-0.082-0.035-0.093-0.093-0.093-0.187v-1.717c0-0.117 0.058-0.152 0.14-0.093 0.662 0.431 1.472 0.688 2.342 0.688 0.001 0 0.002 0 0.003 0h-0c0.922 0 1.307-0.385 1.307-0.91 0-0.42-0.268-0.793-1.447-1.4-1.657-0.793-2.345-1.6-2.345-2.94 0-1.505 1.178-2.753 3.22-2.753 0.069-0.003 0.149-0.005 0.23-0.005 0.667 0 1.306 0.122 1.895 0.344l-0.037-0.012c0.071 0.047 0.118 0.126 0.118 0.216 0 0.006-0 0.012-0.001 0.017l0-0.001v1.6c0 0.093-0.058 0.152-0.175 0.117-0.564-0.33-1.242-0.526-1.966-0.526-0.022 0-0.045 0-0.067 0.001l0.003-0zM10.843 14.938c0.268 0.023 0.478 0.023 0.945 0.023 1.365 0 2.648-0.478 2.648-2.333 0-1.482-0.922-2.228-2.473-2.228-0.467 0-0.91 0.023-1.12 0.035zM8.766 8.738c0-0.082 0.163-0.14 0.257-0.14 0.747-0.035 1.855-0.058 3.010-0.058 3.232 0 4.492 1.773 4.492 4.037 0 2.963-2.147 4.235-4.783 4.235-0.443 0-0.595-0.023-0.91-0.023v4.48c0 0.093-0.035 0.14-0.14 0.14h-1.785c-0.093 0-0.14-0.035-0.14-0.14v-12.526z"></path>
</symbol>
<symbol id="icon-React" viewBox="0 0 32 32">
<path fill="#00d8ff" style="fill: var(--color21, #00d8ff)" d="M26.31 10.978c-0.332-0.114-0.676-0.222-1.030-0.325 0.058-0.238 0.112-0.472 0.159-0.703 0.78-3.785 0.27-6.834-1.471-7.838-1.669-0.963-4.399 0.041-7.157 2.441-0.265 0.231-0.531 0.475-0.797 0.731-0.177-0.169-0.354-0.333-0.53-0.49-2.89-2.566-5.786-3.647-7.526-2.64-1.668 0.965-2.162 3.832-1.46 7.419 0.068 0.347 0.147 0.7 0.237 1.060-0.41 0.116-0.806 0.24-1.184 0.372-3.388 1.181-5.552 3.032-5.552 4.953 0 1.983 2.323 3.972 5.851 5.178 0.278 0.095 0.567 0.185 0.865 0.271-0.097 0.389-0.181 0.77-0.251 1.142-0.669 3.525-0.147 6.324 1.517 7.283 1.718 0.991 4.601-0.028 7.409-2.482 0.222-0.194 0.445-0.4 0.668-0.615 0.289 0.278 0.578 0.542 0.865 0.789 2.72 2.34 5.406 3.285 7.067 2.323 1.716-0.994 2.274-4 1.55-7.659-0.055-0.279-0.12-0.565-0.192-0.855 0.203-0.060 0.401-0.122 0.595-0.186 3.668-1.215 6.055-3.18 6.055-5.19 0-1.927-2.233-3.791-5.69-4.981v0zM25.515 19.851c-0.175 0.058-0.355 0.114-0.537 0.168-0.405-1.282-0.952-2.645-1.62-4.054 0.638-1.375 1.164-2.721 1.557-3.995 0.327 0.095 0.645 0.195 0.951 0.3 2.961 1.019 4.768 2.527 4.768 3.688 0 1.237-1.951 2.843-5.118 3.892v0zM24.2 22.455c0.32 1.618 0.366 3.080 0.154 4.223-0.191 1.027-0.574 1.712-1.048 1.987-1.008 0.584-3.165-0.175-5.491-2.176-0.267-0.229-0.535-0.474-0.805-0.734 0.902-0.986 1.803-2.133 2.682-3.406 1.547-0.137 3.009-0.362 4.334-0.668 0.065 0.263 0.123 0.522 0.173 0.774v0zM10.91 28.564c-0.985 0.348-1.77 0.358-2.244 0.084-1.009-0.582-1.429-2.829-0.857-5.844 0.066-0.345 0.144-0.7 0.234-1.062 1.311 0.29 2.762 0.498 4.312 0.624 0.885 1.246 1.813 2.391 2.747 3.394-0.204 0.197-0.408 0.385-0.61 0.561-1.242 1.085-2.486 1.855-3.582 2.242v0zM6.294 19.843c-1.56-0.533-2.849-1.226-3.732-1.983-0.794-0.68-1.194-1.355-1.194-1.902 0-1.165 1.737-2.651 4.635-3.662 0.352-0.123 0.72-0.238 1.101-0.347 0.4 1.303 0.926 2.664 1.56 4.041-0.642 1.398-1.175 2.781-1.579 4.099-0.272-0.078-0.536-0.161-0.79-0.247v0zM7.841 9.311c-0.601-3.073-0.202-5.392 0.803-5.974 1.071-0.62 3.438 0.264 5.933 2.479 0.159 0.142 0.32 0.29 0.48 0.443-0.93 0.998-1.848 2.135-2.726 3.373-1.505 0.139-2.946 0.364-4.27 0.664-0.083-0.335-0.157-0.664-0.22-0.986v0zM21.644 12.719c-0.317-0.547-0.642-1.081-0.973-1.6 1.021 0.129 1.999 0.3 2.918 0.51-0.276 0.884-0.62 1.808-1.024 2.755-0.29-0.551-0.597-1.107-0.921-1.665v0zM16.015 7.237c0.631 0.683 1.262 1.446 1.883 2.273-0.626-0.030-1.259-0.045-1.898-0.045-0.633 0-1.262 0.015-1.884 0.044 0.622-0.82 1.259-1.581 1.899-2.272v0zM10.35 12.729c-0.316 0.548-0.618 1.101-0.903 1.655-0.398-0.944-0.739-1.873-1.017-2.769 0.913-0.204 1.887-0.371 2.901-0.498-0.336 0.524-0.664 1.062-0.981 1.612v0zM11.36 20.898c-1.048-0.117-2.036-0.275-2.949-0.474 0.283-0.912 0.631-1.861 1.037-2.825 0.286 0.553 0.589 1.106 0.907 1.656h0c0.324 0.56 0.66 1.108 1.005 1.643v0zM16.053 24.777c-0.648-0.699-1.294-1.472-1.925-2.304 0.613 0.024 1.237 0.036 1.872 0.036 0.652 0 1.297-0.015 1.932-0.043-0.623 0.847-1.252 1.621-1.879 2.311v0zM22.578 17.55c0.428 0.975 0.788 1.918 1.075 2.815-0.928 0.212-1.93 0.382-2.985 0.509 0.332-0.526 0.66-1.070 0.982-1.628 0.326-0.565 0.636-1.131 0.928-1.695v0zM20.466 18.562c-0.5 0.867-1.014 1.695-1.535 2.477-0.95 0.068-1.931 0.103-2.93 0.103-0.996 0-1.964-0.031-2.897-0.091-0.542-0.792-1.067-1.622-1.564-2.481h0c-0.496-0.856-0.952-1.72-1.365-2.578 0.413-0.861 0.868-1.725 1.361-2.58l-0 0c0.494-0.857 1.014-1.683 1.552-2.47 0.952-0.072 1.928-0.109 2.914-0.109h0c0.991 0 1.968 0.038 2.919 0.11 0.529 0.781 1.046 1.605 1.542 2.462 0.502 0.867 0.963 1.725 1.38 2.567-0.416 0.857-0.875 1.724-1.375 2.59v0zM23.286 3.297c1.072 0.618 1.488 3.11 0.815 6.378-0.043 0.209-0.091 0.421-0.144 0.636-1.328-0.306-2.769-0.534-4.279-0.676-0.879-1.252-1.79-2.39-2.705-3.376 0.246-0.237 0.491-0.462 0.736-0.675 2.362-2.056 4.57-2.868 5.576-2.288v0zM16 13.101c1.578 0 2.858 1.279 2.858 2.857s-1.279 2.858-2.858 2.858-2.857-1.279-2.857-2.857c0-1.578 1.279-2.857 2.857-2.857v0z"></path>
</symbol>
<symbol id="icon-Redux" viewBox="0 0 32 32">
<path fill="#764abc" style="fill: var(--color22, #764abc)" d="M21.787 21.556c1.107-0.113 1.947-1.051 1.909-2.177s-0.993-2.027-2.138-2.027h-0.076c-1.184 0.038-2.1 1.013-2.061 2.177 0.038 0.563 0.267 1.051 0.611 1.389-1.298 2.515-3.283 4.354-6.261 5.893-2.023 1.051-4.123 1.426-6.223 1.164-1.718-0.225-3.054-0.976-3.894-2.215-1.222-1.839-1.336-3.828-0.305-5.818 0.725-1.426 1.871-2.477 2.596-3.003-0.153-0.488-0.382-1.314-0.496-1.914-5.536 3.941-4.963 9.271-3.283 11.785 1.26 1.877 3.818 3.040 6.643 3.040 0.763 0 1.527-0.075 2.291-0.263 4.887-0.938 8.59-3.791 10.689-8.032zM28.506 16.902c-2.901-3.341-7.177-5.18-12.064-5.18h-0.611c-0.344-0.676-1.069-1.126-1.871-1.126h-0.076c-1.183 0.038-2.099 1.013-2.061 2.177 0.038 1.126 0.992 2.027 2.138 2.027h0.076c0.84-0.037 1.565-0.563 1.871-1.276h0.687c2.901 0 5.65 0.826 8.132 2.44 1.909 1.239 3.283 2.853 4.047 4.804 0.649 1.576 0.611 3.115-0.076 4.429-1.069 1.989-2.863 3.078-5.23 3.078-1.527 0-2.978-0.45-3.741-0.788-0.42 0.375-1.183 0.976-1.718 1.351 1.642 0.751 3.321 1.163 4.925 1.163 3.665 0 6.375-1.989 7.406-3.979 1.107-2.177 1.031-5.93-1.832-9.121zM9.112 22.194c0.038 1.126 0.993 2.027 2.138 2.027h0.076c1.183-0.037 2.1-1.013 2.061-2.177-0.038-1.126-0.993-2.027-2.138-2.027h-0.076c-0.076 0-0.191 0-0.267 0.037-1.565-2.552-2.214-5.33-1.985-8.332 0.153-2.252 0.916-4.204 2.252-5.818 1.107-1.389 3.245-2.064 4.696-2.102 4.047-0.075 5.764 4.879 5.879 6.869 0.496 0.113 1.336 0.375 1.909 0.563-0.458-6.080-4.276-9.233-7.941-9.233-3.436 0-6.605 2.44-7.864 6.043-1.756 4.804-0.611 9.421 1.527 13.062-0.191 0.263-0.305 0.676-0.267 1.088v-0z"></path>
</symbol>
<symbol id="icon-Sass" viewBox="0 0 32 32">
<path fill="#c69" style="fill: var(--color23, #c69)" d="M0 0h32v32h-32v-32z"></path>
<path fill="#fff" style="fill: var(--color4, #fff)" d="M16.125 5.5c-6 2.063-9.875 6.25-9.5 8.75s4.125 4.5 5.813 5.813v0c-2.188 1.125-4.938 2.813-4.875 5 0.125 3 3.375 2.063 4.75 1.188s2.75-3.313 1.875-5.875c1.938-0.5 3.625 0.125 4.125 0.5 1.938 1.375 0.938 2.938 0.25 3.188s-0.25 0.375 0.188 0.25 1.375-0.75 1.375-1.813c0-2.688-2.875-3.938-6.438-3-2.063-2.188-4.875-3.188-4.75-5.563 0.063-0.875 0.375-3.125 5.938-5.938s9.5-1.688 9 0.875c-0.75 3.875-7.5 6.5-9.875 4.25-0.125-0.25-0.563-0.438-0.313 0.25 1.25 3.125 11.375 1.688 11.813-4.938 0.125-3.5-4.938-4.438-9.375-2.938zM10.75 25.5c-1.563 0.5-1.5-0.5-1.438-0.875 0.188-1.063 1.063-2.375 3.688-3.688 0.75 2.375-0.938 4.188-2.25 4.563z"></path>
</symbol>
<symbol id="icon-Typescript" viewBox="0 0 32 32">
<path fill="#3178c6" style="fill: var(--color24, #3178c6)" d="M0 0h32v32h-32v-32z"></path>
<path fill="#fff" style="fill: var(--color4, #fff)" d="M14.563 17.75h4v-2.563h-11.188v2.563h4v11.438h3.188zM19.813 28.563c0.506 0.262 1.125 0.456 1.813 0.587s1.438 0.194 2.188 0.194c0.75 0 1.438-0.069 2.125-0.212s1.25-0.381 1.75-0.688c0.506-0.331 0.938-0.75 1.188-1.313s0.444-1.188 0.444-2c0-0.569-0.087-1.063-0.256-1.5s-0.413-0.813-0.75-1.125c-0.319-0.331-0.688-0.625-1.125-0.875s-0.938-0.512-1.5-0.75c-0.413-0.169-0.75-0.331-1.125-0.494-0.325-0.163-0.606-0.325-0.813-0.488-0.231-0.169-0.406-0.344-0.531-0.525-0.125-0.188-0.188-0.394-0.188-0.625 0-0.212 0.056-0.406 0.169-0.581s0.269-0.319 0.469-0.444c0.2-0.125 0.45-0.219 0.75-0.288 0.294-0.069 0.619-0.1 1-0.1 0.262 0 0.538 0.019 0.813 0.059 0.288 0.039 0.581 0.1 0.875 0.181s0.581 0.181 0.875 0.306c0.275 0.125 0.531 0.269 0.75 0.431v-2.938c-0.475-0.181-1-0.319-1.563-0.406s-1.188-0.131-1.938-0.131c-0.75 0-1.438 0.081-2.125 0.238s-1.25 0.406-1.75 0.75c-0.506 0.338-0.875 0.75-1.188 1.312-0.294 0.525-0.438 1.125-0.438 1.875 0 0.938 0.269 1.75 0.813 2.375 0.538 0.688 1.375 1.188 2.438 1.688 0.431 0.175 0.813 0.35 1.188 0.519s0.688 0.344 0.938 0.525c0.269 0.181 0.481 0.381 0.625 0.594 0.156 0.212 0.238 0.462 0.238 0.75 0 0.2-0.049 0.387-0.144 0.563s-0.244 0.325-0.444 0.45-0.444 0.225-0.75 0.3c-0.294 0.069-0.625 0.106-1.063 0.106-0.688 0-1.375-0.119-2-0.356-0.688-0.238-1.313-0.594-1.756-0.965z"></path>
</symbol>
<symbol id="icon-Vue" viewBox="0 0 32 32">
<path fill="#41b883" style="fill: var(--color25, #41b883)" d="M2 4l14 24 14-24h-5.5l-8.5 14.5-8.5-14.5h-5.5z"></path>
<path fill="#35495e" style="fill: var(--color26, #35495e)" d="M7.5 4l8.5 14.5 8.5-14.5h-5l-3.435 6.013-3.565-6.013h-5z"></path>
</symbol>
<symbol id="icon-Vuetify" viewBox="0 0 32 32">
<path fill="#1697f6" style="fill: var(--color27, #1697f6)" d="M16 0h-6.553l6.553 15.488z"></path>
<path fill="#1867c0" style="fill: var(--color28, #1867c0)" d="M16 0h6.553l-6.553 15.488z"></path>
<path fill="#7bc6ff" style="fill: var(--color29, #7bc6ff)" d="M16 19.958v11.983l-13.98-27.293h7.323z"></path>
<path fill="#aeddff" style="fill: var(--color30, #aeddff)" d="M16 19.959v11.983l13.98-27.293h-7.323z"></path>
</symbol>
<symbol id="icon-Vuex" viewBox="0 0 32 32">
<path fill="#41b883" style="fill: var(--color25, #41b883)" d="M3.292 28.822l10.166-20.51 2.542 5.003v5.26l-5.051 10.247zM28.708 28.838l-10.166-20.51-2.542 5.003v5.26l5.035 10.247z"></path>
<path fill="#35495e" style="fill: var(--color26, #35495e)" d="M3.292 3.164l6.354 12.837 3.812-7.689-2.542-5.148zM28.708 3.164l-6.354 12.837-3.812-7.689 2.542-5.148z"></path>
</symbol>
</defs>
</svg>
